<svg id="Ebene_1" data-name="Ebene 1" xmlns="http://www.w3.org/2000/svg" viewBox="0 0 110.38 109.38"><defs><style>.cls-1{fill:#9d9d9c;}.cls-2{fill:#1d1d1b;}</style></defs><title>attack</title><rect class="cls-1" x="88.31" y="11.04" width="11.04" height="11.04"/><rect class="cls-1" x="77.27" y="22.08" width="11.04" height="11.04"/><rect class="cls-1" x="66.23" y="33.11" width="11.04" height="11.04"/><rect class="cls-1" x="55.19" y="44.15" width="11.04" height="11.04"/><rect class="cls-1" x="44.15" y="55.19" width="11.04" height="11.04"/><rect class="cls-1" x="33.11" y="66.23" width="11.04" height="11.04"/><rect class="cls-2" x="77.27" y="11.04" width="11.04" height="11.04"/><rect class="cls-2" x="66.23" y="22.08" width="11.04" height="11.04"/><rect class="cls-2" x="66.23" y="44.15" width="11.04" height="11.04"/><rect class="cls-2" x="55.19" y="55.19" width="11.04" height="11.04"/><rect class="cls-2" x="44.15" y="66.23" width="11.04" height="11.04"/><rect class="cls-2" x="88.31" width="11.04" height="11.04"/><rect class="cls-2" x="99.34" width="11.04" height="11.04"/><rect class="cls-2" x="99.34" y="11.04" width="11.04" height="11.04"/><rect class="cls-2" x="88.31" y="22.08" width="11.04" height="11.04"/><rect class="cls-2" x="77.27" y="33.11" width="11.04" height="11.04"/><rect class="cls-2" x="55.19" y="33.11" width="11.04" height="11.04"/><rect class="cls-2" x="33.11" y="55.19" width="11.04" height="11.04"/><rect class="cls-2" x="22.08" y="66.23" width="11.04" height="11.04"/><rect class="cls-2" x="22.08" y="77.27" width="11.04" height="11.04"/><rect class="cls-2" x="11.04" y="87.31" width="11.04" height="11.04"/><rect class="cls-2" y="98.34" width="11.04" height="11.04"/><rect class="cls-2" x="33.11" y="77.27" width="11.04" height="11.04"/><rect class="cls-2" x="44.15" y="87.31" width="11.04" height="11.04"/><rect class="cls-2" x="11.04" y="55.19" width="11.04" height="11.04"/><rect class="cls-2" x="44.15" y="44.15" width="11.04" height="11.04"/></svg>