<?xml version="1.0" encoding="UTF-8" standalone="no"?>
<!DOCTYPE svg PUBLIC "-//W3C//DTD SVG 1.1//EN" "http://www.w3.org/Graphics/SVG/1.1/DTD/svg11.dtd">
<svg width="100%" height="100%" viewBox="0 0 50 50" version="1.1" xmlns="http://www.w3.org/2000/svg" xmlns:xlink="http://www.w3.org/1999/xlink" xml:space="preserve" xmlns:serif="http://www.serif.com/" style="fill-rule:evenodd;clip-rule:evenodd;stroke-linejoin:round;stroke-miterlimit:1.41421;">
    <g transform="matrix(1.33846,0,0,1.38983,-12.7,-7.00847)">
        <g transform="matrix(1.33333,0,0,1.33333,-11.6667,-3.66667)">
            <rect x="33.5" y="12.5" width="1.5" height="1.5" style="fill:rgb(251,177,73);"/>
        </g>
        <g transform="matrix(1.33333,0,0,1.33333,-13.6667,-5.66667)">
            <rect x="33.5" y="12.5" width="1.5" height="1.5" style="fill:rgb(251,177,73);"/>
        </g>
        <g transform="matrix(1.33333,0,0,1.33333,-15.6667,-7.66667)">
            <rect x="33.5" y="12.5" width="1.5" height="1.5" style="fill:rgb(251,177,73);"/>
        </g>
        <g transform="matrix(1.33333,0,0,1.33333,-15.6667,19.3333)">
            <rect x="33.5" y="12.5" width="1.5" height="1.5" style="fill:rgb(251,177,73);"/>
        </g>
        <g transform="matrix(1.33333,0,0,1.33333,-9.66667,-1.64805)">
            <rect x="33.5" y="12.5" width="1.5" height="1.5" style="fill:rgb(251,177,73);"/>
        </g>
        <g transform="matrix(1.33333,0,0,1.33333,-11.6667,15.3519)">
            <rect x="33.5" y="12.5" width="1.5" height="1.5" style="fill:rgb(251,177,73);"/>
        </g>
        <g transform="matrix(1.33333,0,0,1.33333,-13.6667,17.3333)">
            <rect x="33.5" y="12.5" width="1.5" height="1.5" style="fill:rgb(251,177,73);"/>
        </g>
        <g transform="matrix(1.33333,0,0,1.33333,-9.66667,13.3333)">
            <rect x="33.5" y="12.5" width="1.5" height="1.5" style="fill:rgb(251,177,73);"/>
        </g>
        <g transform="matrix(1.33333,0,0,8.66667,-7.66667,-91.3333)">
            <rect x="33.5" y="12.5" width="1.5" height="1.5" style="fill:rgb(251,177,73);"/>
        </g>
    </g>
    <g transform="matrix(1.33846,0,0,1.38983,-12.2308,-6.81356)">
        <g transform="matrix(1.33333,0,0,1.33333,-16.6667,-1.68528)">
            <rect x="33.5" y="12.5" width="1.5" height="1.5" style="fill:rgb(255,242,0);"/>
        </g>
        <g transform="matrix(1.33333,0,0,1.33333,-18.6667,-3.68528)">
            <rect x="33.5" y="12.5" width="1.5" height="1.5" style="fill:rgb(255,242,0);"/>
        </g>
        <g transform="matrix(1.33333,0,0,1.33333,-14.6667,0.333333)">
            <rect x="33.5" y="12.5" width="1.5" height="1.5" style="fill:rgb(255,242,0);"/>
        </g>
        <g transform="matrix(1.33333,0,0,1.33333,-16.6667,13.3519)">
            <rect x="33.5" y="12.5" width="1.5" height="1.5" style="fill:rgb(255,242,0);"/>
        </g>
        <g transform="matrix(1.33333,0,0,1.33333,-18.6667,15.3333)">
            <rect x="33.5" y="12.5" width="1.5" height="1.5" style="fill:rgb(255,242,0);"/>
        </g>
        <g transform="matrix(1.33333,0,0,1.33333,-14.6667,11.3333)">
            <rect x="33.5" y="12.5" width="1.5" height="1.5" style="fill:rgb(255,242,0);"/>
        </g>
        <g transform="matrix(1.33333,0,0,6,-12.6667,-56)">
            <rect x="33.5" y="12.5" width="1.5" height="1.5" style="fill:rgb(255,242,0);"/>
        </g>
    </g>
    <g transform="matrix(1.33846,0,0,1.38983,-13.7308,-6.81356)">
        <g transform="matrix(1.33333,0,0,1.33333,-4.66667,-3.68528)">
            <rect x="33.5" y="12.5" width="1.5" height="1.5" style="fill:rgb(255,242,0);"/>
        </g>
        <g transform="matrix(1.33333,0,0,1.33333,-6.66667,-6.16667)">
            <rect x="33.5" y="12.5" width="1.5" height="1.5" style="fill:rgb(255,242,0);"/>
        </g>
        <g transform="matrix(1.33333,0,0,1.33333,-8.66667,-8.16667)">
            <rect x="33.5" y="12.5" width="1.5" height="1.5" style="fill:rgb(255,242,0);"/>
        </g>
        <g transform="matrix(1.33333,0,0,1.33333,-2.66667,-1.66667)">
            <rect x="33.5" y="12.5" width="1.5" height="1.5" style="fill:rgb(255,242,0);"/>
        </g>
        <g transform="matrix(1.33333,0,0,1.33333,-8.66667,18.3333)">
            <rect x="33.5" y="12.5" width="1.5" height="1.5" style="fill:rgb(255,242,0);"/>
        </g>
        <g transform="matrix(1.33333,0,0,1.33333,-6.66667,16.3333)">
            <rect x="33.5" y="12.5" width="1.5" height="1.5" style="fill:rgb(255,242,0);"/>
        </g>
        <g transform="matrix(1.33333,0,0,1.33333,-4.66667,14.3333)">
            <rect x="33.5" y="12.5" width="1.5" height="1.5" style="fill:rgb(255,242,0);"/>
        </g>
        <g transform="matrix(1.33333,0,0,1.33333,-2.66667,12.3333)">
            <rect x="33.5" y="12.5" width="1.5" height="1.5" style="fill:rgb(255,242,0);"/>
        </g>
        <g transform="matrix(1.33333,0,0,5.33333,-1.66667,-47.6667)">
            <rect x="33.5" y="12.5" width="1.5" height="1.5" style="fill:rgb(255,242,0);"/>
        </g>
    </g>
    <g transform="matrix(15.6154,0,0,1.33333,-518.538,8.33333)">
        <rect x="33.5" y="12.5" width="1.5" height="1.5" style="fill:rgb(251,177,73);"/>
    </g>
</svg>
