<?xml version="1.0" encoding="utf-8"?>
<!-- Generator: Adobe Illustrator 22.1.0, SVG Export Plug-In . SVG Version: 6.00 Build 0)  -->
<svg version="1.1" id="Ebene_1" xmlns="http://www.w3.org/2000/svg" xmlns:xlink="http://www.w3.org/1999/xlink" x="0px" y="0px"
	 viewBox="0 0 243 324" style="enable-background:new 0 0 243 324;" xml:space="preserve">
<style type="text/css">
	.st0{fill:#1D1D1B;}
	.st1{fill:#EDEDED;}
	.st2{fill:#C2A310;}
	.st3{fill:#98861E;}
</style>
<title>proscht-logo</title>
<rect x="54" y="54" class="st0" width="27" height="27"/>
<rect x="54" y="27" class="st1" width="27" height="27"/>
<rect x="81" y="27" class="st1" width="27" height="27"/>
<rect x="108" y="27" class="st1" width="27" height="27"/>
<rect x="135" y="27" class="st1" width="27" height="27"/>
<rect x="162" y="27" class="st1" width="27" height="27"/>
<rect x="81" y="54" class="st1" width="27" height="27"/>
<rect x="81" y="81" class="st2" width="27" height="27"/>
<rect x="108" y="81" class="st3" width="27" height="27"/>
<rect x="162" y="162" class="st3" width="27" height="27"/>
<rect x="162" y="189" class="st3" width="27" height="27"/>
<rect x="162" y="216" class="st3" width="27" height="27"/>
<rect x="162" y="243" class="st3" width="27" height="27"/>
<rect x="162" y="270" class="st3" width="27" height="27"/>
<rect x="135" y="270" class="st3" width="27" height="27"/>
<rect x="108" y="270" class="st3" width="27" height="27"/>
<rect x="81" y="270" class="st3" width="27" height="27"/>
<rect x="189" y="270" class="st3" width="27" height="27"/>
<rect x="108" y="108" class="st3" width="27" height="27"/>
<rect x="108" y="135" class="st3" width="27" height="27"/>
<rect x="108" y="162" class="st3" width="27" height="27"/>
<rect x="108" y="189" class="st3" width="27" height="27"/>
<rect x="108" y="216" class="st3" width="27" height="27"/>
<rect x="108" y="243" class="st3" width="27" height="27"/>
<rect x="81" y="108" class="st2" width="27" height="27"/>
<rect x="81" y="135" class="st2" width="27" height="27"/>
<rect x="81" y="162" class="st2" width="27" height="27"/>
<rect x="81" y="189" class="st2" width="27" height="27"/>
<rect x="81" y="216" class="st2" width="27" height="27"/>
<rect x="81" y="243" class="st2" width="27" height="27"/>
<rect x="135" y="81" class="st2" width="27" height="27"/>
<rect x="135" y="108" class="st2" width="27" height="27"/>
<rect x="135" y="135" class="st2" width="27" height="27"/>
<rect x="135" y="162" class="st2" width="27" height="27"/>
<rect x="135" y="189" class="st2" width="27" height="27"/>
<rect x="135" y="216" class="st2" width="27" height="27"/>
<rect x="135" y="243" class="st2" width="27" height="27"/>
<rect x="189" y="81" class="st2" width="27" height="27"/>
<rect x="189" y="108" class="st2" width="27" height="27"/>
<rect x="189" y="135" class="st2" width="27" height="27"/>
<rect x="189" y="162" class="st2" width="27" height="27"/>
<rect x="189" y="189" class="st2" width="27" height="27"/>
<rect x="189" y="216" class="st2" width="27" height="27"/>
<rect x="189" y="243" class="st2" width="27" height="27"/>
<rect x="108" y="54" class="st1" width="27" height="27"/>
<rect x="135" y="54" class="st1" width="27" height="27"/>
<rect x="162" y="54" class="st1" width="27" height="27"/>
<rect x="162" y="81" class="st1" width="27" height="27"/>
<rect x="162" y="108" class="st1" width="27" height="27"/>
<rect x="162" y="135" class="st1" width="27" height="27"/>
<rect x="189" y="54" class="st1" width="27" height="27"/>
<rect x="189" y="27" class="st1" width="27" height="27"/>
<rect x="216" y="27" class="st1" width="27" height="27"/>
<rect x="81" class="st1" width="27" height="27"/>
<rect x="108" class="st1" width="27" height="27"/>
<rect x="135" class="st1" width="27" height="27"/>
<rect x="162" class="st1" width="27" height="27"/>
<rect x="189" class="st1" width="27" height="27"/>
<rect x="216" y="54" class="st0" width="27" height="27"/>
<rect x="216" y="81" class="st0" width="27" height="27"/>
<rect x="216" y="108" class="st0" width="27" height="27"/>
<rect x="216" y="135" class="st0" width="27" height="27"/>
<rect x="216" y="162" class="st0" width="27" height="27"/>
<rect x="216" y="189" class="st0" width="27" height="27"/>
<rect x="216" y="216" class="st0" width="27" height="27"/>
<rect x="216" y="243" class="st0" width="27" height="27"/>
<rect x="216" y="270" class="st0" width="27" height="27"/>
<rect x="54" y="81" class="st0" width="27" height="27"/>
<rect x="54" y="108" class="st0" width="27" height="27"/>
<rect x="54" y="135" class="st0" width="27" height="27"/>
<rect x="54" y="162" class="st0" width="27" height="27"/>
<rect x="54" y="189" class="st0" width="27" height="27"/>
<rect x="54" y="216" class="st0" width="27" height="27"/>
<rect x="54" y="243" class="st0" width="27" height="27"/>
<rect x="27" y="243" class="st0" width="27" height="27"/>
<rect y="216" class="st0" width="27" height="27"/>
<rect y="189" class="st0" width="27" height="27"/>
<rect y="162" class="st0" width="27" height="27"/>
<rect y="135" class="st0" width="27" height="27"/>
<rect y="108" class="st0" width="27" height="27"/>
<rect y="81" class="st0" width="27" height="27"/>
<rect x="27" y="81" class="st0" width="27" height="27"/>
<rect x="54" y="270" class="st0" width="27" height="27"/>
<rect x="81" y="297" class="st0" width="27" height="27"/>
<rect x="108" y="297" class="st0" width="27" height="27"/>
<rect x="135" y="297" class="st0" width="27" height="27"/>
<rect x="162" y="297" class="st0" width="27" height="27"/>
<rect x="189" y="297" class="st0" width="27" height="27"/>
</svg>
