<svg id="Ebene_1" data-name="Ebene 1" xmlns="http://www.w3.org/2000/svg" viewBox="0 0 109 145.37"><defs><style>.cls-1{fill:#221f20;}.cls-2{fill:#f8eb39;}.cls-3{fill:#fbb040;}.cls-4{fill:#ec1c23;}</style></defs><title>bomb</title><rect class="cls-1" x="87.66" width="7.36" height="7.36"/><rect class="cls-1" x="80.3" y="7.36" width="7.36" height="7.36"/><rect class="cls-1" x="80.3" y="49.71" width="7.36" height="7.36"/><rect class="cls-1" x="87.66" y="57.06" width="7.36" height="7.36"/><rect class="cls-1" x="51.51" y="28.16" width="7.36" height="7.36"/><rect class="cls-1" x="44.15" y="35.52" width="7.36" height="7.36"/><rect class="cls-1" x="36.79" y="42.88" width="7.36" height="7.36"/><rect class="cls-1" x="36.79" y="49.71" width="7.36" height="7.36"/><rect class="cls-1" x="29.44" y="57.06" width="7.36" height="7.36"/><rect class="cls-1" x="36.79" y="57.06" width="7.36" height="7.36"/><rect class="cls-1" x="44.15" y="57.06" width="7.36" height="7.36"/><rect class="cls-1" x="29.44" y="64.42" width="7.36" height="7.36"/><rect class="cls-1" x="36.79" y="64.42" width="7.36" height="7.36"/><rect class="cls-1" x="44.15" y="64.42" width="7.36" height="7.36"/><rect class="cls-1" x="14.72" y="71.78" width="7.36" height="7.36"/><rect class="cls-1" x="22.08" y="71.78" width="7.36" height="7.36"/><rect class="cls-1" x="29.44" y="71.78" width="7.36" height="7.36"/><rect class="cls-1" x="36.79" y="71.78" width="7.36" height="7.36"/><rect class="cls-1" x="44.15" y="71.78" width="7.36" height="7.36"/><rect class="cls-1" x="51.51" y="71.78" width="7.36" height="7.36"/><rect class="cls-1" x="58.87" y="71.78" width="7.36" height="7.36"/><rect class="cls-1" x="7.36" y="79.14" width="7.36" height="7.36"/><rect class="cls-1" x="14.72" y="79.14" width="7.36" height="7.36"/><rect class="cls-1" x="22.08" y="79.14" width="7.36" height="7.36"/><rect class="cls-1" x="29.44" y="79.14" width="7.36" height="7.36"/><rect class="cls-1" x="36.79" y="79.14" width="7.36" height="7.36"/><rect class="cls-1" x="44.15" y="79.14" width="7.36" height="7.36"/><rect class="cls-1" x="51.51" y="79.14" width="7.36" height="7.36"/><rect class="cls-1" x="58.87" y="79.14" width="7.36" height="7.36"/><rect class="cls-1" x="66.23" y="79.14" width="7.36" height="7.36"/><rect class="cls-1" y="86.5" width="7.36" height="7.36"/><rect class="cls-1" x="7.36" y="86.5" width="7.36" height="7.36"/><rect class="cls-1" x="14.72" y="86.5" width="7.36" height="7.36"/><rect class="cls-1" x="22.08" y="86.5" width="7.36" height="7.36"/><rect class="cls-1" x="29.44" y="86.5" width="7.36" height="7.36"/><rect class="cls-1" x="36.79" y="86.5" width="7.36" height="7.36"/><rect class="cls-1" x="44.15" y="86.5" width="7.36" height="7.36"/><rect class="cls-1" x="51.51" y="86.5" width="7.36" height="7.36"/><rect class="cls-1" x="58.87" y="86.5" width="7.36" height="7.36"/><rect class="cls-1" x="66.23" y="86.5" width="7.36" height="7.36"/><rect class="cls-1" x="73.59" y="86.5" width="7.36" height="7.36"/><rect class="cls-1" y="93.86" width="7.36" height="7.36"/><rect class="cls-1" x="7.36" y="93.86" width="7.36" height="7.36"/><rect class="cls-1" x="14.72" y="93.86" width="7.36" height="7.36"/><rect class="cls-1" x="22.08" y="93.86" width="7.36" height="7.36"/><rect class="cls-1" x="29.44" y="93.86" width="7.36" height="7.36"/><rect class="cls-1" x="36.79" y="93.86" width="7.36" height="7.36"/><rect class="cls-1" x="44.15" y="93.86" width="7.36" height="7.36"/><rect class="cls-1" x="51.51" y="93.86" width="7.36" height="7.36"/><rect class="cls-1" x="58.87" y="93.86" width="7.36" height="7.36"/><rect class="cls-1" x="66.23" y="93.86" width="7.36" height="7.36"/><rect class="cls-1" x="73.59" y="93.86" width="7.36" height="7.36"/><rect class="cls-1" y="101.22" width="7.36" height="7.36"/><rect class="cls-1" x="7.36" y="101.22" width="7.36" height="7.36"/><rect class="cls-1" x="14.72" y="101.22" width="7.36" height="7.36"/><rect class="cls-1" x="22.08" y="101.22" width="7.36" height="7.36"/><rect class="cls-1" x="29.44" y="101.22" width="7.36" height="7.36"/><rect class="cls-1" x="36.79" y="101.22" width="7.36" height="7.36"/><rect class="cls-1" x="44.15" y="101.22" width="7.36" height="7.36"/><rect class="cls-1" x="51.51" y="101.22" width="7.36" height="7.36"/><rect class="cls-1" x="58.87" y="101.22" width="7.36" height="7.36"/><rect class="cls-1" x="66.23" y="101.22" width="7.36" height="7.36"/><rect class="cls-1" x="73.59" y="101.22" width="7.36" height="7.36"/><rect class="cls-1" y="108.58" width="7.36" height="7.36"/><rect class="cls-1" x="7.36" y="108.58" width="7.36" height="7.36"/><rect class="cls-1" x="14.72" y="108.58" width="7.36" height="7.36"/><rect class="cls-1" x="22.08" y="108.58" width="7.36" height="7.36"/><rect class="cls-1" x="29.44" y="108.58" width="7.36" height="7.36"/><rect class="cls-1" x="36.79" y="108.58" width="7.36" height="7.36"/><rect class="cls-1" x="44.15" y="108.58" width="7.36" height="7.36"/><rect class="cls-1" x="51.51" y="108.58" width="7.36" height="7.36"/><rect class="cls-1" x="58.87" y="108.58" width="7.36" height="7.36"/><rect class="cls-1" x="66.23" y="108.58" width="7.36" height="7.36"/><rect class="cls-1" x="73.59" y="108.58" width="7.36" height="7.36"/><rect class="cls-1" y="115.93" width="7.36" height="7.36"/><rect class="cls-1" x="7.36" y="115.93" width="7.36" height="7.36"/><rect class="cls-1" x="14.72" y="115.93" width="7.36" height="7.36"/><rect class="cls-1" x="22.08" y="115.93" width="7.36" height="7.36"/><rect class="cls-1" x="29.44" y="115.93" width="7.36" height="7.36"/><rect class="cls-1" x="36.79" y="115.93" width="7.36" height="7.36"/><rect class="cls-1" x="44.15" y="115.93" width="7.36" height="7.36"/><rect class="cls-1" x="51.51" y="115.93" width="7.36" height="7.36"/><rect class="cls-1" x="58.87" y="115.93" width="7.36" height="7.36"/><rect class="cls-1" x="66.23" y="115.93" width="7.36" height="7.36"/><rect class="cls-1" x="73.59" y="115.93" width="7.36" height="7.36"/><rect class="cls-1" y="123.29" width="7.36" height="7.36"/><rect class="cls-1" x="7.36" y="123.29" width="7.36" height="7.36"/><rect class="cls-1" x="14.72" y="123.29" width="7.36" height="7.36"/><rect class="cls-1" x="22.08" y="123.29" width="7.36" height="7.36"/><rect class="cls-1" x="29.44" y="123.29" width="7.36" height="7.36"/><rect class="cls-1" x="36.79" y="123.29" width="7.36" height="7.36"/><rect class="cls-1" x="44.15" y="123.29" width="7.36" height="7.36"/><rect class="cls-1" x="51.51" y="123.29" width="7.36" height="7.36"/><rect class="cls-1" x="58.87" y="123.29" width="7.36" height="7.36"/><rect class="cls-1" x="66.23" y="123.29" width="7.36" height="7.36"/><rect class="cls-1" x="73.59" y="123.29" width="7.36" height="7.36"/><rect class="cls-1" x="7.36" y="130.65" width="7.36" height="7.36"/><rect class="cls-1" x="14.72" y="130.65" width="7.36" height="7.36"/><rect class="cls-1" x="22.08" y="130.65" width="7.36" height="7.36"/><rect class="cls-1" x="29.44" y="130.65" width="7.36" height="7.36"/><rect class="cls-1" x="36.79" y="130.65" width="7.36" height="7.36"/><rect class="cls-1" x="44.15" y="130.65" width="7.36" height="7.36"/><rect class="cls-1" x="51.51" y="130.65" width="7.36" height="7.36"/><rect class="cls-1" x="58.87" y="130.65" width="7.36" height="7.36"/><rect class="cls-1" x="14.72" y="138.01" width="7.36" height="7.36"/><rect class="cls-1" x="22.08" y="138.01" width="7.36" height="7.36"/><rect class="cls-1" x="29.44" y="138.01" width="7.36" height="7.36"/><rect class="cls-1" x="36.79" y="138.01" width="7.36" height="7.36"/><rect class="cls-1" x="44.15" y="138.01" width="7.36" height="7.36"/><rect class="cls-1" x="51.51" y="138.01" width="7.36" height="7.36"/><rect class="cls-1" x="58.87" y="138.01" width="7.36" height="7.36"/><rect class="cls-1" x="66.23" y="130.65" width="7.36" height="7.36"/><rect class="cls-1" x="58.87" y="28.16" width="7.36" height="7.36"/><rect class="cls-2" x="66.23" y="28.16" width="7.36" height="7.36"/><rect class="cls-3" x="73.59" y="28.16" width="7.36" height="7.36"/><rect class="cls-3" x="66.23" y="35.52" width="7.36" height="7.36"/><rect class="cls-4" x="66.23" y="42.88" width="7.36" height="7.36"/><rect class="cls-4" x="73.59" y="35.52" width="7.36" height="7.36"/><rect class="cls-4" x="80.95" y="28.16" width="7.36" height="7.36"/><rect class="cls-1" x="58.87" y="35.52" width="7.36" height="7.36"/><rect class="cls-1" x="58.87" y="20.8" width="7.36" height="7.36"/><rect class="cls-1" x="66.23" y="20.8" width="7.36" height="7.36"/><rect class="cls-1" x="66.23" y="13.44" width="7.36" height="7.36"/><rect class="cls-1" x="73.59" y="20.8" width="7.36" height="7.36"/><rect class="cls-1" x="101.64" y="28.16" width="7.36" height="7.36"/><rect class="cls-1" x="94.28" y="28.16" width="7.36" height="7.36"/></svg>