<svg id="Ebene_1" data-name="Ebene 1" xmlns="http://www.w3.org/2000/svg" viewBox="0 0 88.30549 95.66428"><defs><style>.cls-1{fill:#a45d33;}.cls-2{fill:#45302b;}.cls-3{fill:#f8d9fb;}.cls-4{fill:#161616;}.cls-5{fill:#f2c001;}.cls-6{fill:#0184d4;}.cls-7{fill:#f8f9fb;}</style></defs><title>luckyluke</title><rect class="cls-1" y="14.71758" width="7.35879" height="7.35879"/><rect class="cls-1" x="7.35879" y="14.71758" width="7.35879" height="7.35879"/><rect class="cls-1" x="14.71758" y="14.71758" width="7.35879" height="7.35879"/><rect class="cls-2" x="14.71758" y="22.07637" width="7.35879" height="7.35879"/><rect class="cls-3" x="22.07637" y="22.07637" width="7.35879" height="7.35879"/><rect class="cls-3" x="22.07637" y="29.43516" width="7.35879" height="7.35879"/><rect class="cls-3" x="22.07637" y="36.79395" width="7.35879" height="7.35879"/><rect class="cls-3" x="14.71758" y="36.79395" width="7.35879" height="7.35879"/><rect class="cls-3" x="29.43516" y="36.79395" width="7.35879" height="7.35879"/><rect class="cls-3" x="29.43516" y="22.07637" width="7.35879" height="7.35879"/><rect class="cls-2" x="29.43516" y="29.43516" width="7.35879" height="7.35879"/><rect class="cls-2" x="51.51154" y="29.43516" width="7.35879" height="7.35879"/><rect class="cls-3" x="36.79395" y="22.07637" width="7.35879" height="7.35879"/><rect class="cls-3" x="36.79395" y="29.43516" width="7.35879" height="7.35879"/><rect class="cls-3" x="44.15274" y="29.43516" width="7.35879" height="7.35879"/><rect class="cls-3" x="36.79395" y="36.79395" width="7.35879" height="7.35879"/><rect class="cls-3" x="44.15274" y="36.79395" width="7.35879" height="7.35879"/><rect class="cls-3" x="51.51154" y="36.79395" width="7.35879" height="7.35879"/><rect class="cls-3" x="44.15274" y="22.07637" width="7.35879" height="7.35879"/><rect class="cls-3" x="51.51154" y="22.07637" width="7.35879" height="7.35879"/><rect class="cls-3" x="58.87033" y="22.07637" width="7.35879" height="7.35879"/><rect class="cls-3" x="58.87033" y="29.43516" width="7.35879" height="7.35879"/><rect class="cls-3" x="58.87033" y="36.79395" width="7.35879" height="7.35879"/><rect class="cls-3" x="66.22912" y="36.79395" width="7.35879" height="7.35879"/><rect class="cls-3" x="22.07637" y="44.15274" width="7.35879" height="7.35879"/><rect class="cls-3" x="29.43516" y="44.15274" width="7.35879" height="7.35879"/><rect class="cls-3" x="36.79395" y="44.15274" width="7.35879" height="7.35879"/><rect class="cls-3" x="44.15274" y="44.15274" width="7.35879" height="7.35879"/><rect class="cls-3" x="51.51154" y="44.15274" width="7.35879" height="7.35879"/><rect class="cls-3" x="58.87033" y="44.15274" width="7.35879" height="7.35879"/><rect class="cls-3" x="29.43516" y="51.51154" width="7.35879" height="7.35879"/><rect class="cls-3" x="36.79395" y="51.51154" width="7.35879" height="7.35879"/><rect class="cls-3" x="44.15274" y="51.51154" width="7.35879" height="7.35879"/><rect class="cls-3" x="51.51154" y="51.51154" width="7.35879" height="7.35879"/><rect class="cls-2" x="66.22912" y="22.07637" width="7.35879" height="7.35879"/><rect class="cls-2" x="66.22912" y="29.43516" width="7.35879" height="7.35879"/><rect class="cls-2" x="14.71758" y="29.43516" width="7.35879" height="7.35879"/><rect class="cls-1" x="22.07637" y="14.71758" width="7.35879" height="7.35879"/><rect class="cls-1" x="29.43516" y="14.71758" width="7.35879" height="7.35879"/><rect class="cls-1" x="36.79395" y="14.71758" width="7.35879" height="7.35879"/><rect class="cls-1" x="44.15274" y="14.71758" width="7.35879" height="7.35879"/><rect class="cls-1" x="51.51154" y="14.71758" width="7.35879" height="7.35879"/><rect class="cls-1" x="58.87033" y="14.71758" width="7.35879" height="7.35879"/><rect class="cls-1" x="66.22912" y="14.71758" width="7.35879" height="7.35879"/><rect class="cls-1" x="73.58791" y="14.71758" width="7.35879" height="7.35879"/><rect class="cls-1" x="80.9467" y="14.71758" width="7.35879" height="7.35879"/><rect class="cls-1" x="14.71758" y="7.35879" width="7.35879" height="7.35879"/><rect class="cls-1" x="22.07637" y="7.35879" width="7.35879" height="7.35879"/><rect class="cls-1" x="29.43516" y="7.35879" width="7.35879" height="7.35879"/><rect class="cls-1" x="36.79395" y="7.35879" width="7.35879" height="7.35879"/><rect class="cls-1" x="44.15274" y="7.35879" width="7.35879" height="7.35879"/><rect class="cls-1" x="51.51154" y="7.35879" width="7.35879" height="7.35879"/><rect class="cls-1" x="58.87033" y="7.35879" width="7.35879" height="7.35879"/><rect class="cls-1" x="66.22912" y="7.35879" width="7.35879" height="7.35879"/><rect class="cls-1" x="14.71758" width="7.35879" height="7.35879"/><rect class="cls-1" x="22.07637" width="7.35879" height="7.35879"/><rect class="cls-1" x="29.43516" width="7.35879" height="7.35879"/><rect class="cls-1" x="36.79395" width="7.35879" height="7.35879"/><rect class="cls-1" x="44.15274" width="7.35879" height="7.35879"/><rect class="cls-1" x="51.51154" width="7.35879" height="7.35879"/><rect class="cls-1" x="58.87033" width="7.35879" height="7.35879"/><rect class="cls-1" x="66.22912" width="7.35879" height="7.35879"/><rect class="cls-4" x="22.07637" y="58.87033" width="7.35879" height="7.35879"/><rect class="cls-5" x="14.71758" y="58.87033" width="7.35879" height="7.35879"/><rect class="cls-5" x="14.71758" y="66.22912" width="7.35879" height="7.35879"/><rect class="cls-1" x="22.07637" y="73.58791" width="7.35879" height="7.35879"/><rect class="cls-1" x="29.43516" y="73.58791" width="7.35879" height="7.35879"/><rect class="cls-1" x="36.79395" y="73.58791" width="7.35879" height="7.35879"/><rect class="cls-1" x="44.15274" y="73.58791" width="7.35879" height="7.35879"/><rect class="cls-1" x="51.51154" y="73.58791" width="7.35879" height="7.35879"/><rect class="cls-1" x="58.87033" y="73.58791" width="7.35879" height="7.35879"/><rect class="cls-6" x="22.07637" y="80.9467" width="7.35879" height="7.35879"/><rect class="cls-1" x="14.71758" y="80.9467" width="7.35879" height="7.35879"/><rect class="cls-6" x="29.43516" y="80.9467" width="7.35879" height="7.35879"/><rect class="cls-6" x="36.79395" y="80.9467" width="7.35879" height="7.35879"/><rect class="cls-6" x="44.15274" y="80.9467" width="7.35879" height="7.35879"/><rect class="cls-6" x="51.51154" y="80.9467" width="7.35879" height="7.35879"/><rect class="cls-6" x="58.87033" y="80.9467" width="7.35879" height="7.35879"/><rect class="cls-1" x="22.07637" y="88.30549" width="7.35879" height="7.35879"/><rect class="cls-1" x="29.43516" y="88.30549" width="7.35879" height="7.35879"/><rect class="cls-1" x="51.51154" y="88.30549" width="7.35879" height="7.35879"/><rect class="cls-1" x="58.87033" y="88.30549" width="7.35879" height="7.35879"/><rect class="cls-3" x="7.35879" y="58.87033" width="7.35879" height="7.35879"/><rect class="cls-3" x="7.35879" y="66.22912" width="7.35879" height="7.35879"/><rect class="cls-3" x="73.58791" y="58.87033" width="7.35879" height="7.35879"/><rect class="cls-3" x="73.58791" y="66.22912" width="7.35879" height="7.35879"/><rect class="cls-5" x="29.43516" y="58.87033" width="7.35879" height="7.35879"/><rect class="cls-5" x="36.79395" y="58.87033" width="7.35879" height="7.35879"/><rect class="cls-5" x="44.15274" y="58.87033" width="7.35879" height="7.35879"/><rect class="cls-4" x="29.43516" y="66.22912" width="7.35879" height="7.35879"/><rect class="cls-4" x="51.51154" y="66.22912" width="7.35879" height="7.35879"/><rect class="cls-7" x="58.87033" y="66.22912" width="7.35879" height="7.35879"/><rect class="cls-5" x="44.15274" y="66.22912" width="7.35879" height="7.35879"/><rect class="cls-5" x="36.79395" y="66.22912" width="7.35879" height="7.35879"/><rect class="cls-5" x="51.51154" y="58.87033" width="7.35879" height="7.35879"/><rect class="cls-4" x="58.87033" y="58.87033" width="7.35879" height="7.35879"/><rect class="cls-5" x="66.22912" y="58.87033" width="7.35879" height="7.35879"/><rect class="cls-5" x="66.22912" y="66.22912" width="7.35879" height="7.35879"/><rect class="cls-7" x="22.07637" y="66.22912" width="7.35879" height="7.35879"/></svg>