<svg id="Ebene_1" data-name="Ebene 1" xmlns="http://www.w3.org/2000/svg" viewBox="0 0 66.22912 80.9467"><defs><style>.cls-1{fill:#bb9666;}.cls-2{fill:#4cb8fb;}.cls-3{fill:#e4d5c4;}.cls-4{fill:#ededed;}.cls-5{fill:#a79278;}.cls-6{fill:#a56433;}.cls-7{fill:#c5d5d8;}.cls-8{fill:#7d848a;}.cls-9{fill:#1689b9;}</style></defs><title>lukesykwalker</title><rect class="cls-1" x="14.71758" width="7.35879" height="7.35879"/><rect class="cls-1" x="22.07637" width="7.35879" height="7.35879"/><rect class="cls-1" x="29.43516" width="7.35879" height="7.35879"/><rect class="cls-1" x="36.79395" width="7.35879" height="7.35879"/><rect class="cls-1" x="44.15274" width="7.35879" height="7.35879"/><rect class="cls-1" x="14.71758" y="7.35879" width="7.35879" height="7.35879"/><rect class="cls-1" x="7.35879" y="7.35879" width="7.35879" height="7.35879"/><rect class="cls-2" width="7.35879" height="7.35879"/><rect class="cls-2" y="7.35879" width="7.35879" height="7.35879"/><rect class="cls-2" y="14.71758" width="7.35879" height="7.35879"/><rect class="cls-2" y="22.07637" width="7.35879" height="7.35879"/><rect class="cls-2" y="29.43516" width="7.35879" height="7.35879"/><rect class="cls-2" y="36.79395" width="7.35879" height="7.35879"/><rect class="cls-3" y="44.15274" width="7.35879" height="7.35879"/><rect class="cls-4" x="7.35879" y="44.15274" width="7.35879" height="7.35879"/><rect class="cls-4" x="14.71758" y="44.15274" width="7.35879" height="7.35879"/><rect class="cls-4" x="22.07637" y="44.15274" width="7.35879" height="7.35879"/><rect class="cls-4" x="7.35879" y="51.51154" width="7.35879" height="7.35879"/><rect class="cls-4" x="14.71758" y="51.51154" width="7.35879" height="7.35879"/><rect class="cls-4" x="14.71758" y="66.22912" width="7.35879" height="7.35879"/><rect class="cls-5" x="14.71758" y="73.58791" width="7.35879" height="7.35879"/><rect class="cls-5" x="22.07637" y="73.58791" width="7.35879" height="7.35879"/><rect class="cls-5" x="36.79395" y="73.58791" width="7.35879" height="7.35879"/><rect class="cls-5" x="44.15274" y="73.58791" width="7.35879" height="7.35879"/><rect class="cls-4" x="29.43516" y="66.22912" width="7.35879" height="7.35879"/><rect class="cls-4" x="36.79395" y="66.22912" width="7.35879" height="7.35879"/><rect class="cls-4" x="44.15274" y="66.22912" width="7.35879" height="7.35879"/><rect class="cls-6" x="14.71758" y="58.87033" width="7.35879" height="7.35879"/><rect class="cls-6" x="22.07637" y="58.87033" width="7.35879" height="7.35879"/><rect class="cls-6" x="29.43516" y="58.87033" width="7.35879" height="7.35879"/><rect class="cls-6" x="36.79395" y="58.87033" width="7.35879" height="7.35879"/><rect class="cls-6" x="44.15274" y="58.87033" width="7.35879" height="7.35879"/><rect class="cls-4" x="22.07637" y="51.51154" width="7.35879" height="7.35879"/><rect class="cls-4" x="29.43516" y="44.15274" width="7.35879" height="7.35879"/><rect class="cls-7" x="36.79395" y="44.15274" width="7.35879" height="7.35879"/><rect class="cls-7" x="29.43516" y="51.51154" width="7.35879" height="7.35879"/><rect class="cls-8" x="22.07637" y="66.22912" width="7.35879" height="7.35879"/><rect class="cls-4" x="44.15274" y="44.15274" width="7.35879" height="7.35879"/><rect class="cls-4" x="51.51154" y="44.15274" width="7.35879" height="7.35879"/><rect class="cls-4" x="51.51154" y="51.51154" width="7.35879" height="7.35879"/><rect class="cls-4" x="36.79395" y="51.51154" width="7.35879" height="7.35879"/><rect class="cls-4" x="44.15274" y="51.51154" width="7.35879" height="7.35879"/><rect class="cls-3" y="51.51154" width="7.35879" height="7.35879"/><rect class="cls-3" x="58.87033" y="44.15274" width="7.35879" height="7.35879"/><rect class="cls-3" x="36.79395" y="14.71758" width="7.35879" height="7.35879"/><rect class="cls-3" x="14.71758" y="22.07637" width="7.35879" height="7.35879"/><rect class="cls-3" x="29.43516" y="22.07637" width="7.35879" height="7.35879"/><rect class="cls-3" x="29.43516" y="29.43516" width="7.35879" height="7.35879"/><rect class="cls-3" x="36.79395" y="29.43516" width="7.35879" height="7.35879"/><rect class="cls-3" x="44.15274" y="22.07637" width="7.35879" height="7.35879"/><rect class="cls-3" x="14.71758" y="29.43516" width="7.35879" height="7.35879"/><rect class="cls-3" x="22.07637" y="29.43516" width="7.35879" height="7.35879"/><rect class="cls-3" x="44.15274" y="29.43516" width="7.35879" height="7.35879"/><rect class="cls-3" x="29.43516" y="36.79395" width="7.35879" height="7.35879"/><rect class="cls-3" x="36.79395" y="36.79395" width="7.35879" height="7.35879"/><rect class="cls-3" x="14.71758" y="36.79395" width="7.35879" height="7.35879"/><rect class="cls-3" x="22.07637" y="36.79395" width="7.35879" height="7.35879"/><rect class="cls-3" x="44.15274" y="36.79395" width="7.35879" height="7.35879"/><rect class="cls-3" x="58.87033" y="51.51154" width="7.35879" height="7.35879"/><rect class="cls-2" y="58.87033" width="7.35879" height="7.35879"/><rect class="cls-9" x="22.07637" y="22.07637" width="7.35879" height="7.35879"/><rect class="cls-9" x="36.79395" y="22.07637" width="7.35879" height="7.35879"/><rect class="cls-1" x="22.07637" y="7.35879" width="7.35879" height="7.35879"/><rect class="cls-1" x="29.43516" y="7.35879" width="7.35879" height="7.35879"/><rect class="cls-1" x="36.79395" y="7.35879" width="7.35879" height="7.35879"/><rect class="cls-1" x="44.15274" y="7.35879" width="7.35879" height="7.35879"/><rect class="cls-1" x="51.51154" y="7.35879" width="7.35879" height="7.35879"/><rect class="cls-1" x="14.71758" y="14.71758" width="7.35879" height="7.35879"/><rect class="cls-1" x="7.35879" y="14.71758" width="7.35879" height="7.35879"/><rect class="cls-1" x="7.35879" y="22.07637" width="7.35879" height="7.35879"/><rect class="cls-1" x="7.35879" y="29.43516" width="7.35879" height="7.35879"/><rect class="cls-1" x="22.07637" y="14.71758" width="7.35879" height="7.35879"/><rect class="cls-1" x="29.43516" y="14.71758" width="7.35879" height="7.35879"/><rect class="cls-1" x="44.15274" y="14.71758" width="7.35879" height="7.35879"/><rect class="cls-1" x="51.51154" y="14.71758" width="7.35879" height="7.35879"/><rect class="cls-1" x="51.51154" y="22.07637" width="7.35879" height="7.35879"/><rect class="cls-1" x="51.51154" y="29.43516" width="7.35879" height="7.35879"/></svg>