<svg id="Ebene_1" data-name="Ebene 1" xmlns="http://www.w3.org/2000/svg" viewBox="0 0 66.22912 95.66428"><defs><style>.cls-1{fill:#f5e35d;}.cls-2{fill:#f6d03d;}.cls-3{fill:#ecdeeb;}.cls-4{fill:#e08cb5;}.cls-5{fill:#edb5d0;}.cls-6{fill:#e1e1e2;}.cls-7{fill:#d30575;}.cls-8{fill:#c2066f;}.cls-9{fill:#76c8ed;}.cls-10{fill:#35a6d8;}.cls-11{fill:#4dc2eb;}.cls-12{fill:#d93220;}</style></defs><title>peach</title><rect class="cls-1" x="14.71758" width="7.35879" height="7.35879"/><rect class="cls-2" x="7.35879" y="14.71758" width="7.35879" height="7.35879"/><rect class="cls-2" x="14.71758" y="14.71758" width="7.35879" height="7.35879"/><rect class="cls-2" x="22.07637" y="14.71758" width="7.35879" height="7.35879"/><rect class="cls-2" x="29.43516" y="14.71758" width="7.35879" height="7.35879"/><rect class="cls-2" x="36.79395" y="14.71758" width="7.35879" height="7.35879"/><rect class="cls-2" x="44.15274" y="14.71758" width="7.35879" height="7.35879"/><rect class="cls-2" x="51.51154" y="14.71758" width="7.35879" height="7.35879"/><rect class="cls-2" x="7.35879" y="22.07637" width="7.35879" height="7.35879"/><rect class="cls-2" x="7.35879" y="29.43516" width="7.35879" height="7.35879"/><rect class="cls-2" x="7.35879" y="36.79395" width="7.35879" height="7.35879"/><rect class="cls-2" x="7.35879" y="44.15274" width="7.35879" height="7.35879"/><rect class="cls-2" x="7.35879" y="66.22912" width="7.35879" height="7.35879"/><rect class="cls-2" y="44.15274" width="7.35879" height="7.35879"/><rect class="cls-2" x="58.87033" y="44.15274" width="7.35879" height="7.35879"/><rect class="cls-2" x="51.51154" y="44.15274" width="7.35879" height="7.35879"/><rect class="cls-2" x="51.51154" y="66.22912" width="7.35879" height="7.35879"/><rect class="cls-3" x="14.71758" y="22.07637" width="7.35879" height="7.35879"/><rect class="cls-3" x="14.71758" y="29.43516" width="7.35879" height="7.35879"/><rect class="cls-3" x="14.71758" y="36.79395" width="7.35879" height="7.35879"/><rect class="cls-3" x="14.71758" y="44.15274" width="7.35879" height="7.35879"/><rect class="cls-3" x="22.07637" y="44.15274" width="7.35879" height="7.35879"/><rect class="cls-3" x="22.07637" y="36.79395" width="7.35879" height="7.35879"/><rect class="cls-3" x="22.07637" y="22.07637" width="7.35879" height="7.35879"/><rect class="cls-3" x="29.43516" y="29.43516" width="7.35879" height="7.35879"/><rect class="cls-3" x="29.43516" y="36.79395" width="7.35879" height="7.35879"/><rect class="cls-4" x="29.43516" y="44.15274" width="7.35879" height="7.35879"/><rect class="cls-5" x="7.35879" y="51.51154" width="7.35879" height="7.35879"/><rect class="cls-6" y="51.51154" width="7.35879" height="7.35879"/><rect class="cls-6" x="58.87033" y="51.51154" width="7.35879" height="7.35879"/><rect class="cls-6" x="58.87033" y="58.87033" width="7.35879" height="7.35879"/><rect class="cls-6" x="51.51154" y="58.87033" width="7.35879" height="7.35879"/><rect class="cls-6" y="58.87033" width="7.35879" height="7.35879"/><rect class="cls-6" x="7.35879" y="58.87033" width="7.35879" height="7.35879"/><rect class="cls-5" x="14.71758" y="51.51154" width="7.35879" height="7.35879"/><rect class="cls-5" x="22.07637" y="51.51154" width="7.35879" height="7.35879"/><rect class="cls-5" x="36.79395" y="51.51154" width="7.35879" height="7.35879"/><rect class="cls-5" x="29.43516" y="58.87033" width="7.35879" height="7.35879"/><rect class="cls-5" x="29.43516" y="66.22912" width="7.35879" height="7.35879"/><rect class="cls-5" x="22.07637" y="66.22912" width="7.35879" height="7.35879"/><rect class="cls-5" x="36.79395" y="66.22912" width="7.35879" height="7.35879"/><rect class="cls-5" x="7.35879" y="73.58791" width="7.35879" height="7.35879"/><rect class="cls-5" y="73.58791" width="7.35879" height="7.35879"/><rect class="cls-5" x="14.71758" y="73.58791" width="7.35879" height="7.35879"/><rect class="cls-5" x="22.07637" y="73.58791" width="7.35879" height="7.35879"/><rect class="cls-5" x="29.43516" y="73.58791" width="7.35879" height="7.35879"/><rect class="cls-5" x="36.79395" y="73.58791" width="7.35879" height="7.35879"/><rect class="cls-5" x="44.15274" y="73.58791" width="7.35879" height="7.35879"/><rect class="cls-5" x="51.51154" y="73.58791" width="7.35879" height="7.35879"/><rect class="cls-5" x="58.87033" y="73.58791" width="7.35879" height="7.35879"/><rect class="cls-7" x="7.35879" y="80.9467" width="7.35879" height="7.35879"/><rect class="cls-8" x="14.71758" y="88.30549" width="7.35879" height="7.35879"/><rect class="cls-8" x="22.07637" y="88.30549" width="7.35879" height="7.35879"/><rect class="cls-8" x="29.43516" y="88.30549" width="7.35879" height="7.35879"/><rect class="cls-8" x="36.79395" y="88.30549" width="7.35879" height="7.35879"/><rect class="cls-8" x="44.15274" y="88.30549" width="7.35879" height="7.35879"/><rect class="cls-7" y="80.9467" width="7.35879" height="7.35879"/><rect class="cls-5" x="14.71758" y="80.9467" width="7.35879" height="7.35879"/><rect class="cls-5" x="22.07637" y="80.9467" width="7.35879" height="7.35879"/><rect class="cls-5" x="29.43516" y="80.9467" width="7.35879" height="7.35879"/><rect class="cls-5" x="36.79395" y="80.9467" width="7.35879" height="7.35879"/><rect class="cls-5" x="44.15274" y="80.9467" width="7.35879" height="7.35879"/><rect class="cls-7" x="51.51154" y="80.9467" width="7.35879" height="7.35879"/><rect class="cls-7" x="58.87033" y="80.9467" width="7.35879" height="7.35879"/><rect class="cls-5" x="44.15274" y="51.51154" width="7.35879" height="7.35879"/><rect class="cls-5" x="51.51154" y="51.51154" width="7.35879" height="7.35879"/><rect class="cls-3" x="36.79395" y="36.79395" width="7.35879" height="7.35879"/><rect class="cls-3" x="36.79395" y="44.15274" width="7.35879" height="7.35879"/><rect class="cls-3" x="44.15274" y="36.79395" width="7.35879" height="7.35879"/><rect class="cls-3" x="44.15274" y="44.15274" width="7.35879" height="7.35879"/><rect class="cls-3" x="36.79395" y="22.07637" width="7.35879" height="7.35879"/><rect class="cls-3" x="44.15274" y="22.07637" width="7.35879" height="7.35879"/><rect class="cls-3" x="44.15274" y="29.43516" width="7.35879" height="7.35879"/><rect class="cls-2" x="29.43516" y="22.07637" width="7.35879" height="7.35879"/><rect class="cls-2" x="51.51154" y="22.07637" width="7.35879" height="7.35879"/><rect class="cls-2" x="51.51154" y="29.43516" width="7.35879" height="7.35879"/><rect class="cls-2" x="51.51154" y="36.79395" width="7.35879" height="7.35879"/><rect class="cls-9" x="14.71758" y="7.35879" width="7.35879" height="7.35879"/><rect class="cls-10" x="22.07637" y="29.43516" width="7.35879" height="7.35879"/><rect class="cls-10" x="36.79395" y="29.43516" width="7.35879" height="7.35879"/><rect class="cls-11" x="29.43516" y="51.51154" width="7.35879" height="7.35879"/><rect class="cls-9" x="43.76481" y="7.35879" width="7.35879" height="7.35879"/><rect class="cls-1" x="29.2412" width="7.35879" height="7.35879"/><rect class="cls-12" x="29.2412" y="7.35879" width="7.35879" height="7.35879"/><rect class="cls-1" x="36.59999" y="7.35879" width="7.35879" height="7.35879"/><rect class="cls-1" x="43.76481" width="7.35879" height="7.35879"/><rect class="cls-7" x="14.71758" y="58.87033" width="7.35879" height="7.35879"/><rect class="cls-7" x="14.71758" y="66.22912" width="7.35879" height="7.35879"/><rect class="cls-7" x="22.07637" y="58.87033" width="7.35879" height="7.35879"/><rect class="cls-7" x="36.79395" y="58.87033" width="7.35879" height="7.35879"/><rect class="cls-7" x="44.15274" y="58.87033" width="7.35879" height="7.35879"/><rect class="cls-7" x="44.15274" y="66.22912" width="7.35879" height="7.35879"/></svg>