<svg id="Ebene_1" data-name="Ebene 1" xmlns="http://www.w3.org/2000/svg" viewBox="0 0 972 551"><defs><style>.cls-1{fill:#1d1d1b;}.cls-2{fill:#ededed;}.cls-3{fill:#c2a310;}.cls-4{fill:#98861e;}</style></defs><title>proscht-logo</title><rect class="cls-1" x="387" y="54" width="27" height="27"/><rect class="cls-2" x="387" y="27" width="27" height="27"/><rect class="cls-2" x="414" y="27" width="27" height="27"/><rect class="cls-2" x="441" y="27" width="27" height="27"/><rect class="cls-2" x="468" y="27" width="27" height="27"/><rect class="cls-2" x="495" y="27" width="27" height="27"/><rect class="cls-2" x="414" y="54" width="27" height="27"/><rect class="cls-3" x="414" y="81" width="27" height="27"/><rect class="cls-4" x="441" y="81" width="27" height="27"/><rect class="cls-4" x="495" y="162" width="27" height="27"/><rect class="cls-4" x="495" y="189" width="27" height="27"/><rect class="cls-4" x="495" y="216" width="27" height="27"/><rect class="cls-4" x="495" y="243" width="27" height="27"/><rect class="cls-4" x="495" y="270" width="27" height="27"/><rect class="cls-4" x="468" y="270" width="27" height="27"/><rect class="cls-4" x="441" y="270" width="27" height="27"/><rect class="cls-4" x="414" y="270" width="27" height="27"/><rect class="cls-4" x="522" y="270" width="27" height="27"/><rect class="cls-4" x="441" y="108" width="27" height="27"/><rect class="cls-4" x="441" y="135" width="27" height="27"/><rect class="cls-4" x="441" y="162" width="27" height="27"/><rect class="cls-4" x="441" y="189" width="27" height="27"/><rect class="cls-4" x="441" y="216" width="27" height="27"/><rect class="cls-4" x="441" y="243" width="27" height="27"/><rect class="cls-3" x="414" y="108" width="27" height="27"/><rect class="cls-3" x="414" y="135" width="27" height="27"/><rect class="cls-3" x="414" y="162" width="27" height="27"/><rect class="cls-3" x="414" y="189" width="27" height="27"/><rect class="cls-3" x="414" y="216" width="27" height="27"/><rect class="cls-3" x="414" y="243" width="27" height="27"/><rect class="cls-3" x="468" y="81" width="27" height="27"/><rect class="cls-3" x="468" y="108" width="27" height="27"/><rect class="cls-3" x="468" y="135" width="27" height="27"/><rect class="cls-3" x="468" y="162" width="27" height="27"/><rect class="cls-3" x="468" y="189" width="27" height="27"/><rect class="cls-3" x="468" y="216" width="27" height="27"/><rect class="cls-3" x="468" y="243" width="27" height="27"/><rect class="cls-3" x="522" y="81" width="27" height="27"/><rect class="cls-3" x="522" y="108" width="27" height="27"/><rect class="cls-3" x="522" y="135" width="27" height="27"/><rect class="cls-3" x="522" y="162" width="27" height="27"/><rect class="cls-3" x="522" y="189" width="27" height="27"/><rect class="cls-3" x="522" y="216" width="27" height="27"/><rect class="cls-3" x="522" y="243" width="27" height="27"/><rect class="cls-2" x="441" y="54" width="27" height="27"/><rect class="cls-2" x="468" y="54" width="27" height="27"/><rect class="cls-2" x="495" y="54" width="27" height="27"/><rect class="cls-2" x="495" y="81" width="27" height="27"/><rect class="cls-2" x="495" y="108" width="27" height="27"/><rect class="cls-2" x="495" y="135" width="27" height="27"/><rect class="cls-2" x="522" y="54" width="27" height="27"/><rect class="cls-2" x="522" y="27" width="27" height="27"/><rect class="cls-2" x="549" y="27" width="27" height="27"/><rect class="cls-2" x="414" width="27" height="27"/><rect class="cls-2" x="441" width="27" height="27"/><rect class="cls-2" x="468" width="27" height="27"/><rect class="cls-2" x="495" width="27" height="27"/><rect class="cls-2" x="522" width="27" height="27"/><rect class="cls-1" x="549" y="54" width="27" height="27"/><rect class="cls-1" x="549" y="81" width="27" height="27"/><rect class="cls-1" x="549" y="108" width="27" height="27"/><rect class="cls-1" x="549" y="135" width="27" height="27"/><rect class="cls-1" x="549" y="162" width="27" height="27"/><rect class="cls-1" x="549" y="189" width="27" height="27"/><rect class="cls-1" x="549" y="216" width="27" height="27"/><rect class="cls-1" x="549" y="243" width="27" height="27"/><rect class="cls-1" x="549" y="270" width="27" height="27"/><rect class="cls-1" x="387" y="81" width="27" height="27"/><rect class="cls-1" x="387" y="108" width="27" height="27"/><rect class="cls-1" x="387" y="135" width="27" height="27"/><rect class="cls-1" x="387" y="162" width="27" height="27"/><rect class="cls-1" x="387" y="189" width="27" height="27"/><rect class="cls-1" x="387" y="216" width="27" height="27"/><rect class="cls-1" x="387" y="243" width="27" height="27"/><rect class="cls-1" x="360" y="243" width="27" height="27"/><rect class="cls-1" x="333" y="216" width="27" height="27"/><rect class="cls-1" x="333" y="189" width="27" height="27"/><rect class="cls-1" x="333" y="162" width="27" height="27"/><rect class="cls-1" x="333" y="135" width="27" height="27"/><rect class="cls-1" x="333" y="108" width="27" height="27"/><rect class="cls-1" x="333" y="81" width="27" height="27"/><rect class="cls-1" y="524" width="27" height="27"/><rect class="cls-1" y="497" width="27" height="27"/><rect class="cls-1" y="470" width="27" height="27"/><rect class="cls-1" y="443" width="27" height="27"/><rect class="cls-1" y="416" width="27" height="27"/><rect class="cls-1" x="27" y="416" width="27" height="27"/><rect class="cls-1" x="54" y="416" width="27" height="27"/><rect class="cls-1" x="81" y="416" width="27" height="27"/><rect class="cls-1" x="81" y="443" width="27" height="27"/><rect class="cls-1" x="81" y="470" width="27" height="27"/><rect class="cls-1" x="54" y="470" width="27" height="27"/><rect class="cls-1" x="27" y="470" width="27" height="27"/><rect class="cls-1" x="135" y="524" width="27" height="27"/><rect class="cls-1" x="135" y="497" width="27" height="27"/><rect class="cls-1" x="135" y="470" width="27" height="27"/><rect class="cls-1" x="135" y="443" width="27" height="27"/><rect class="cls-1" x="135" y="416" width="27" height="27"/><rect class="cls-1" x="162" y="416" width="27" height="27"/><rect class="cls-1" x="189" y="416" width="27" height="27"/><rect class="cls-1" x="216" y="416" width="27" height="27"/><rect class="cls-1" x="216" y="443" width="27" height="27"/><rect class="cls-1" x="216" y="470" width="27" height="27"/><rect class="cls-1" x="189" y="470" width="27" height="27"/><rect class="cls-1" x="162" y="470" width="27" height="27"/><rect class="cls-1" x="189" y="497" width="27" height="27"/><rect class="cls-1" x="217" y="524" width="27" height="27"/><rect class="cls-1" x="270" y="524" width="27" height="27"/><rect class="cls-1" x="270" y="497" width="27" height="27"/><rect class="cls-1" x="270" y="470" width="27" height="27"/><rect class="cls-1" x="270" y="443" width="27" height="27"/><rect class="cls-1" x="270" y="416" width="27" height="27"/><rect class="cls-1" x="297" y="416" width="27" height="27"/><rect class="cls-1" x="324" y="416" width="27" height="27"/><rect class="cls-1" x="351" y="416" width="27" height="27"/><rect class="cls-1" x="351" y="443" width="27" height="27"/><rect class="cls-1" x="351" y="470" width="27" height="27"/><rect class="cls-1" x="351" y="497" width="27" height="27"/><rect class="cls-1" x="351" y="524" width="27" height="27"/><rect class="cls-1" x="324" y="524" width="27" height="27"/><rect class="cls-1" x="297" y="524" width="27" height="27"/><rect class="cls-1" x="405" y="524" width="27" height="27"/><rect class="cls-1" x="405" y="470" width="27" height="27"/><rect class="cls-1" x="405" y="443" width="27" height="27"/><rect class="cls-1" x="405" y="416" width="27" height="27"/><rect class="cls-1" x="432" y="416" width="27" height="27"/><rect class="cls-1" x="459" y="416" width="27" height="27"/><rect class="cls-1" x="486" y="416" width="27" height="27"/><rect class="cls-1" x="486" y="470" width="27" height="27"/><rect class="cls-1" x="459" y="470" width="27" height="27"/><rect class="cls-1" x="432" y="470" width="27" height="27"/><rect class="cls-1" x="486" y="497" width="27" height="27"/><rect class="cls-1" x="486" y="524" width="27" height="27"/><rect class="cls-1" x="459" y="524" width="27" height="27"/><rect class="cls-1" x="432" y="524" width="27" height="27"/><rect class="cls-1" x="540" y="524" width="27" height="27"/><rect class="cls-1" x="540" y="470" width="27" height="27"/><rect class="cls-1" x="540" y="497" width="27" height="27"/><rect class="cls-1" x="540" y="443" width="27" height="27"/><rect class="cls-1" x="540" y="416" width="27" height="27"/><rect class="cls-1" x="567" y="416" width="27" height="27"/><rect class="cls-1" x="594" y="416" width="27" height="27"/><rect class="cls-1" x="621" y="416" width="27" height="27"/><rect class="cls-1" x="621" y="524" width="27" height="27"/><rect class="cls-1" x="594" y="524" width="27" height="27"/><rect class="cls-1" x="567" y="524" width="27" height="27"/><rect class="cls-1" x="675" y="524" width="27" height="27"/><rect class="cls-1" x="675" y="470" width="27" height="27"/><rect class="cls-1" x="702" y="470" width="27" height="27"/><rect class="cls-1" x="729" y="470" width="27" height="27"/><rect class="cls-1" x="675" y="497" width="27" height="27"/><rect class="cls-1" x="675" y="443" width="27" height="27"/><rect class="cls-1" x="675" y="416" width="27" height="27"/><rect class="cls-1" x="756" y="416" width="27" height="27"/><rect class="cls-1" x="756" y="497" width="27" height="27"/><rect class="cls-1" x="756" y="470" width="27" height="27"/><rect class="cls-1" x="756" y="443" width="27" height="27"/><rect class="cls-1" x="756" y="524" width="27" height="27"/><rect class="cls-1" x="810" y="416" width="27" height="27"/><rect class="cls-1" x="837" y="416" width="27" height="27"/><rect class="cls-1" x="864" y="416" width="27" height="27"/><rect class="cls-1" x="891" y="416" width="27" height="27"/><rect class="cls-1" x="945" y="416" width="27" height="27"/><rect class="cls-1" x="945" y="443" width="27" height="27"/><rect class="cls-1" x="945" y="470" width="27" height="27"/><rect class="cls-1" x="945" y="524" width="27" height="27"/><rect class="cls-1" x="864" y="443" width="27" height="27"/><rect class="cls-1" x="864" y="470" width="27" height="27"/><rect class="cls-1" x="864" y="497" width="27" height="27"/><rect class="cls-1" x="864" y="524" width="27" height="27"/><rect class="cls-1" x="360" y="81" width="27" height="27"/><rect class="cls-1" x="387" y="270" width="27" height="27"/><rect class="cls-1" x="414" y="297" width="27" height="27"/><rect class="cls-1" x="441" y="297" width="27" height="27"/><rect class="cls-1" x="468" y="297" width="27" height="27"/><rect class="cls-1" x="495" y="297" width="27" height="27"/><rect class="cls-1" x="522" y="297" width="27" height="27"/></svg>