<svg id="Ebene_1" data-name="Ebene 1" xmlns="http://www.w3.org/2000/svg" viewBox="0 0 117.74 161.89"><defs><style>.cls-1{fill:#9d9d9c;}</style></defs><title>shield</title><rect class="cls-1" y="7.36" width="7.36" height="7.36"/><rect class="cls-1" x="7.36" y="7.36" width="7.36" height="7.36"/><rect class="cls-1" x="14.72" y="7.36" width="7.36" height="7.36"/><rect class="cls-1" x="22.08" y="7.36" width="7.36" height="7.36"/><rect class="cls-1" x="29.44" y="7.36" width="7.36" height="7.36"/><rect class="cls-1" x="36.79" y="7.36" width="7.36" height="7.36"/><rect class="cls-1" x="44.15" y="7.36" width="7.36" height="7.36"/><rect class="cls-1" x="66.23" y="7.36" width="7.36" height="7.36"/><rect class="cls-1" x="73.59" y="7.36" width="7.36" height="7.36"/><rect class="cls-1" x="80.95" y="7.36" width="7.36" height="7.36"/><rect class="cls-1" y="14.72" width="7.36" height="7.36"/><rect class="cls-1" x="7.36" y="14.72" width="7.36" height="7.36"/><rect class="cls-1" x="14.72" y="14.72" width="7.36" height="7.36"/><rect class="cls-1" x="22.08" y="14.72" width="7.36" height="7.36"/><rect class="cls-1" x="29.44" y="14.72" width="7.36" height="7.36"/><rect class="cls-1" x="36.79" y="14.72" width="7.36" height="7.36"/><rect class="cls-1" x="44.15" y="14.72" width="7.36" height="7.36"/><rect class="cls-1" x="66.23" y="14.72" width="7.36" height="7.36"/><rect class="cls-1" x="73.59" y="14.72" width="7.36" height="7.36"/><rect class="cls-1" x="73.59" y="22.08" width="7.36" height="7.36"/><rect class="cls-1" x="73.59" y="29.44" width="7.36" height="7.36"/><rect class="cls-1" x="73.59" y="36.79" width="7.36" height="7.36"/><rect class="cls-1" x="73.59" y="44.15" width="7.36" height="7.36"/><rect class="cls-1" x="73.59" y="51.51" width="7.36" height="7.36"/><rect class="cls-1" x="73.59" y="58.87" width="7.36" height="7.36"/><rect class="cls-1" x="73.59" y="66.23" width="7.36" height="7.36"/><rect class="cls-1" x="73.59" y="73.59" width="7.36" height="7.36"/><rect class="cls-1" x="73.59" y="80.95" width="7.36" height="7.36"/><rect class="cls-1" x="73.59" y="88.31" width="7.36" height="7.36"/><rect class="cls-1" x="73.59" y="95.66" width="7.36" height="7.36"/><rect class="cls-1" x="73.59" y="103.02" width="7.36" height="7.36"/><rect class="cls-1" x="73.59" y="110.38" width="7.36" height="7.36"/><rect class="cls-1" x="73.59" y="117.74" width="7.36" height="7.36"/><rect class="cls-1" x="80.95" y="14.72" width="7.36" height="7.36"/><rect class="cls-1" y="22.08" width="7.36" height="7.36"/><rect class="cls-1" x="7.36" y="22.08" width="7.36" height="7.36"/><rect class="cls-1" x="14.72" y="22.08" width="7.36" height="7.36"/><rect class="cls-1" x="22.08" y="22.08" width="7.36" height="7.36"/><rect class="cls-1" x="29.44" y="22.08" width="7.36" height="7.36"/><rect class="cls-1" x="36.79" y="22.08" width="7.36" height="7.36"/><rect class="cls-1" x="44.15" y="22.08" width="7.36" height="7.36"/><rect class="cls-1" x="66.23" y="22.08" width="7.36" height="7.36"/><rect class="cls-1" y="29.44" width="7.36" height="7.36"/><rect class="cls-1" x="7.36" y="29.44" width="7.36" height="7.36"/><rect class="cls-1" x="14.72" y="29.44" width="7.36" height="7.36"/><rect class="cls-1" x="22.08" y="29.44" width="7.36" height="7.36"/><rect class="cls-1" x="29.44" y="29.44" width="7.36" height="7.36"/><rect class="cls-1" x="36.79" y="29.44" width="7.36" height="7.36"/><rect class="cls-1" x="44.15" y="29.44" width="7.36" height="7.36"/><rect class="cls-1" x="66.23" y="29.44" width="7.36" height="7.36"/><rect class="cls-1" y="36.79" width="7.36" height="7.36"/><rect class="cls-1" x="7.36" y="36.79" width="7.36" height="7.36"/><rect class="cls-1" x="14.72" y="36.79" width="7.36" height="7.36"/><rect class="cls-1" x="22.08" y="36.79" width="7.36" height="7.36"/><rect class="cls-1" x="29.44" y="36.79" width="7.36" height="7.36"/><rect class="cls-1" x="36.79" y="36.79" width="7.36" height="7.36"/><rect class="cls-1" x="44.15" y="36.79" width="7.36" height="7.36"/><rect class="cls-1" x="66.23" y="36.79" width="7.36" height="7.36"/><rect class="cls-1" x="88.31" y="7.36" width="7.36" height="7.36"/><rect class="cls-1" x="88.31" y="14.72" width="7.36" height="7.36"/><rect class="cls-1" x="88.31" y="22.08" width="7.36" height="7.36"/><rect class="cls-1" x="88.31" y="29.44" width="7.36" height="7.36"/><rect class="cls-1" x="88.31" y="36.79" width="7.36" height="7.36"/><rect class="cls-1" x="95.66" y="7.36" width="7.36" height="7.36"/><rect class="cls-1" x="95.66" y="14.72" width="7.36" height="7.36"/><rect class="cls-1" x="95.66" y="22.08" width="7.36" height="7.36"/><rect class="cls-1" x="103.02" y="7.36" width="7.36" height="7.36"/><rect class="cls-1" x="7.36" width="7.36" height="7.36"/><rect class="cls-1" x="14.72" width="7.36" height="7.36"/><rect class="cls-1" x="22.08" width="7.36" height="7.36"/><rect class="cls-1" x="29.44" width="7.36" height="7.36"/><rect class="cls-1" x="36.79" width="7.36" height="7.36"/><rect class="cls-1" x="44.15" width="7.36" height="7.36"/><rect class="cls-1" x="66.23" width="7.36" height="7.36"/><rect class="cls-1" x="73.59" width="7.36" height="7.36"/><rect class="cls-1" x="80.95" width="7.36" height="7.36"/><rect class="cls-1" x="88.31" width="7.36" height="7.36"/><rect class="cls-1" x="95.66" width="7.36" height="7.36"/><rect class="cls-1" x="103.02" width="7.36" height="7.36"/><rect class="cls-1" x="103.02" y="14.72" width="7.36" height="7.36"/><rect class="cls-1" x="103.02" y="22.08" width="7.36" height="7.36"/><rect class="cls-1" x="103.02" y="29.44" width="7.36" height="7.36"/><rect class="cls-1" x="103.02" y="36.79" width="7.36" height="7.36"/><rect class="cls-1" x="110.38" y="7.36" width="7.36" height="7.36"/><rect class="cls-1" x="110.38" y="14.72" width="7.36" height="7.36"/><rect class="cls-1" x="110.38" y="22.08" width="7.36" height="7.36"/><rect class="cls-1" x="110.38" y="29.44" width="7.36" height="7.36"/><rect class="cls-1" x="110.38" y="36.79" width="7.36" height="7.36"/><rect class="cls-1" y="44.15" width="7.36" height="7.36"/><rect class="cls-1" x="7.36" y="44.15" width="7.36" height="7.36"/><rect class="cls-1" x="14.72" y="44.15" width="7.36" height="7.36"/><rect class="cls-1" x="22.08" y="44.15" width="7.36" height="7.36"/><rect class="cls-1" x="29.44" y="44.15" width="7.36" height="7.36"/><rect class="cls-1" x="36.79" y="44.15" width="7.36" height="7.36"/><rect class="cls-1" x="44.15" y="44.15" width="7.36" height="7.36"/><rect class="cls-1" x="66.23" y="44.15" width="7.36" height="7.36"/><rect class="cls-1" y="51.51" width="7.36" height="7.36"/><rect class="cls-1" x="7.36" y="51.51" width="7.36" height="7.36"/><rect class="cls-1" x="14.72" y="51.51" width="7.36" height="7.36"/><rect class="cls-1" x="22.08" y="51.51" width="7.36" height="7.36"/><rect class="cls-1" x="29.44" y="51.51" width="7.36" height="7.36"/><rect class="cls-1" x="36.79" y="51.51" width="7.36" height="7.36"/><rect class="cls-1" x="44.15" y="51.51" width="7.36" height="7.36"/><rect class="cls-1" x="66.23" y="51.51" width="7.36" height="7.36"/><rect class="cls-1" y="58.87" width="7.36" height="7.36"/><rect class="cls-1" x="7.36" y="58.87" width="7.36" height="7.36"/><rect class="cls-1" x="14.72" y="58.87" width="7.36" height="7.36"/><rect class="cls-1" x="22.08" y="58.87" width="7.36" height="7.36"/><rect class="cls-1" x="29.44" y="58.87" width="7.36" height="7.36"/><rect class="cls-1" x="36.79" y="58.87" width="7.36" height="7.36"/><rect class="cls-1" x="44.15" y="58.87" width="7.36" height="7.36"/><rect class="cls-1" x="66.23" y="58.87" width="7.36" height="7.36"/><rect class="cls-1" y="66.23" width="7.36" height="7.36"/><rect class="cls-1" x="7.36" y="66.23" width="7.36" height="7.36"/><rect class="cls-1" x="14.72" y="66.23" width="7.36" height="7.36"/><rect class="cls-1" x="22.08" y="66.23" width="7.36" height="7.36"/><rect class="cls-1" x="29.44" y="66.23" width="7.36" height="7.36"/><rect class="cls-1" x="36.79" y="66.23" width="7.36" height="7.36"/><rect class="cls-1" x="44.15" y="66.23" width="7.36" height="7.36"/><rect class="cls-1" x="66.23" y="66.23" width="7.36" height="7.36"/><rect class="cls-1" y="73.59" width="7.36" height="7.36"/><rect class="cls-1" x="7.36" y="73.59" width="7.36" height="7.36"/><rect class="cls-1" x="14.72" y="73.59" width="7.36" height="7.36"/><rect class="cls-1" x="22.08" y="73.59" width="7.36" height="7.36"/><rect class="cls-1" x="29.44" y="73.59" width="7.36" height="7.36"/><rect class="cls-1" x="36.79" y="73.59" width="7.36" height="7.36"/><rect class="cls-1" x="44.15" y="73.59" width="7.36" height="7.36"/><rect class="cls-1" x="66.23" y="73.59" width="7.36" height="7.36"/><rect class="cls-1" x="88.31" y="44.15" width="7.36" height="7.36"/><rect class="cls-1" x="88.31" y="51.51" width="7.36" height="7.36"/><rect class="cls-1" x="88.31" y="58.87" width="7.36" height="7.36"/><rect class="cls-1" x="88.31" y="66.23" width="7.36" height="7.36"/><rect class="cls-1" x="88.31" y="73.59" width="7.36" height="7.36"/><rect class="cls-1" x="103.02" y="44.15" width="7.36" height="7.36"/><rect class="cls-1" x="103.02" y="51.51" width="7.36" height="7.36"/><rect class="cls-1" x="103.02" y="58.87" width="7.36" height="7.36"/><rect class="cls-1" x="103.02" y="66.23" width="7.36" height="7.36"/><rect class="cls-1" x="103.02" y="73.59" width="7.36" height="7.36"/><rect class="cls-1" x="110.38" y="44.15" width="7.36" height="7.36"/><rect class="cls-1" x="110.38" y="51.51" width="7.36" height="7.36"/><rect class="cls-1" x="110.38" y="58.87" width="7.36" height="7.36"/><rect class="cls-1" x="110.38" y="66.23" width="7.36" height="7.36"/><rect class="cls-1" x="110.38" y="73.59" width="7.36" height="7.36"/><rect class="cls-1" y="80.95" width="7.36" height="7.36"/><rect class="cls-1" x="7.36" y="80.95" width="7.36" height="7.36"/><rect class="cls-1" x="14.72" y="80.95" width="7.36" height="7.36"/><rect class="cls-1" x="22.08" y="80.95" width="7.36" height="7.36"/><rect class="cls-1" x="29.44" y="80.95" width="7.36" height="7.36"/><rect class="cls-1" x="36.79" y="80.95" width="7.36" height="7.36"/><rect class="cls-1" x="44.15" y="80.95" width="7.36" height="7.36"/><rect class="cls-1" x="66.23" y="80.95" width="7.36" height="7.36"/><rect class="cls-1" y="88.31" width="7.36" height="7.36"/><rect class="cls-1" x="7.36" y="88.31" width="7.36" height="7.36"/><rect class="cls-1" x="14.72" y="88.31" width="7.36" height="7.36"/><rect class="cls-1" x="22.08" y="88.31" width="7.36" height="7.36"/><rect class="cls-1" x="29.44" y="88.31" width="7.36" height="7.36"/><rect class="cls-1" x="36.79" y="88.31" width="7.36" height="7.36"/><rect class="cls-1" x="44.15" y="88.31" width="7.36" height="7.36"/><rect class="cls-1" x="66.23" y="88.31" width="7.36" height="7.36"/><rect class="cls-1" y="95.66" width="7.36" height="7.36"/><rect class="cls-1" x="7.36" y="95.66" width="7.36" height="7.36"/><rect class="cls-1" x="14.72" y="95.66" width="7.36" height="7.36"/><rect class="cls-1" x="22.08" y="95.66" width="7.36" height="7.36"/><rect class="cls-1" x="29.44" y="95.66" width="7.36" height="7.36"/><rect class="cls-1" x="36.79" y="95.66" width="7.36" height="7.36"/><rect class="cls-1" x="44.15" y="95.66" width="7.36" height="7.36"/><rect class="cls-1" x="66.23" y="95.66" width="7.36" height="7.36"/><rect class="cls-1" y="103.02" width="7.36" height="7.36"/><rect class="cls-1" x="7.36" y="103.02" width="7.36" height="7.36"/><rect class="cls-1" x="14.72" y="103.02" width="7.36" height="7.36"/><rect class="cls-1" x="22.08" y="103.02" width="7.36" height="7.36"/><rect class="cls-1" x="29.44" y="103.02" width="7.36" height="7.36"/><rect class="cls-1" x="36.79" y="103.02" width="7.36" height="7.36"/><rect class="cls-1" x="44.15" y="103.02" width="7.36" height="7.36"/><rect class="cls-1" x="66.23" y="103.02" width="7.36" height="7.36"/><rect class="cls-1" y="110.38" width="7.36" height="7.36"/><rect class="cls-1" x="7.36" y="110.38" width="7.36" height="7.36"/><rect class="cls-1" x="14.72" y="110.38" width="7.36" height="7.36"/><rect class="cls-1" x="22.08" y="110.38" width="7.36" height="7.36"/><rect class="cls-1" x="29.44" y="110.38" width="7.36" height="7.36"/><rect class="cls-1" x="36.79" y="110.38" width="7.36" height="7.36"/><rect class="cls-1" x="44.15" y="110.38" width="7.36" height="7.36"/><rect class="cls-1" x="66.23" y="110.38" width="7.36" height="7.36"/><rect class="cls-1" x="88.31" y="80.95" width="7.36" height="7.36"/><rect class="cls-1" x="88.31" y="88.31" width="7.36" height="7.36"/><rect class="cls-1" x="88.31" y="95.66" width="7.36" height="7.36"/><rect class="cls-1" x="88.31" y="103.02" width="7.36" height="7.36"/><rect class="cls-1" x="88.31" y="110.38" width="7.36" height="7.36"/><rect class="cls-1" x="95.66" y="88.31" width="7.36" height="7.36"/><rect class="cls-1" x="95.66" y="95.66" width="7.36" height="7.36"/><rect class="cls-1" x="95.66" y="103.02" width="7.36" height="7.36"/><rect class="cls-1" x="95.66" y="110.38" width="7.36" height="7.36"/><rect class="cls-1" x="103.02" y="80.95" width="7.36" height="7.36"/><rect class="cls-1" x="103.02" y="88.31" width="7.36" height="7.36"/><rect class="cls-1" x="103.02" y="95.66" width="7.36" height="7.36"/><rect class="cls-1" x="103.02" y="103.02" width="7.36" height="7.36"/><rect class="cls-1" x="103.02" y="110.38" width="7.36" height="7.36"/><rect class="cls-1" x="7.36" y="117.74" width="7.36" height="7.36"/><rect class="cls-1" x="14.72" y="117.74" width="7.36" height="7.36"/><rect class="cls-1" x="22.08" y="117.74" width="7.36" height="7.36"/><rect class="cls-1" x="29.44" y="117.74" width="7.36" height="7.36"/><rect class="cls-1" x="36.79" y="117.74" width="7.36" height="7.36"/><rect class="cls-1" x="44.15" y="117.74" width="7.36" height="7.36"/><rect class="cls-1" x="66.23" y="117.74" width="7.36" height="7.36"/><rect class="cls-1" x="80.95" y="117.74" width="7.36" height="7.36"/><rect class="cls-1" x="88.31" y="117.74" width="7.36" height="7.36"/><rect class="cls-1" x="95.66" y="117.74" width="7.36" height="7.36"/><rect class="cls-1" x="103.02" y="117.74" width="7.36" height="7.36"/><rect class="cls-1" x="14.72" y="125.1" width="7.36" height="7.36"/><rect class="cls-1" x="22.08" y="125.1" width="7.36" height="7.36"/><rect class="cls-1" x="29.44" y="125.1" width="7.36" height="7.36"/><rect class="cls-1" x="36.79" y="125.1" width="7.36" height="7.36"/><rect class="cls-1" x="44.15" y="125.1" width="7.36" height="7.36"/><rect class="cls-1" x="66.23" y="125.1" width="7.36" height="7.36"/><rect class="cls-1" x="73.59" y="125.1" width="7.36" height="7.36"/><rect class="cls-1" x="80.95" y="125.1" width="7.36" height="7.36"/><rect class="cls-1" x="88.31" y="125.1" width="7.36" height="7.36"/><rect class="cls-1" x="95.66" y="125.1" width="7.36" height="7.36"/><rect class="cls-1" x="22.08" y="132.46" width="7.36" height="7.36"/><rect class="cls-1" x="29.44" y="132.46" width="7.36" height="7.36"/><rect class="cls-1" x="36.79" y="132.46" width="7.36" height="7.36"/><rect class="cls-1" x="44.15" y="132.46" width="7.36" height="7.36"/><rect class="cls-1" x="66.23" y="132.46" width="7.36" height="7.36"/><rect class="cls-1" x="73.59" y="132.46" width="7.36" height="7.36"/><rect class="cls-1" x="80.95" y="132.46" width="7.36" height="7.36"/><rect class="cls-1" x="88.31" y="132.46" width="7.36" height="7.36"/><rect class="cls-1" x="29.44" y="139.82" width="7.36" height="7.36"/><rect class="cls-1" x="36.79" y="139.82" width="7.36" height="7.36"/><rect class="cls-1" x="44.15" y="139.82" width="7.36" height="7.36"/><rect class="cls-1" x="66.23" y="139.82" width="7.36" height="7.36"/><rect class="cls-1" x="73.59" y="139.82" width="7.36" height="7.36"/><rect class="cls-1" x="80.95" y="139.82" width="7.36" height="7.36"/><rect class="cls-1" x="66.23" y="147.18" width="7.36" height="7.36"/><rect class="cls-1" x="44.15" y="147.18" width="7.36" height="7.36"/><rect class="cls-1" x="51.51" y="7.36" width="7.36" height="7.36"/><rect class="cls-1" x="51.51" y="14.72" width="7.36" height="7.36"/><rect class="cls-1" x="51.51" y="22.08" width="7.36" height="7.36"/><rect class="cls-1" x="51.51" y="29.44" width="7.36" height="7.36"/><rect class="cls-1" x="51.51" y="36.79" width="7.36" height="7.36"/><rect class="cls-1" x="51.51" width="7.36" height="7.36"/><rect class="cls-1" x="51.51" y="44.15" width="7.36" height="7.36"/><rect class="cls-1" x="51.51" y="51.51" width="7.36" height="7.36"/><rect class="cls-1" x="51.51" y="58.87" width="7.36" height="7.36"/><rect class="cls-1" x="51.51" y="66.23" width="7.36" height="7.36"/><rect class="cls-1" x="51.51" y="73.59" width="7.36" height="7.36"/><rect class="cls-1" x="51.51" y="80.95" width="7.36" height="7.36"/><rect class="cls-1" x="51.51" y="88.31" width="7.36" height="7.36"/><rect class="cls-1" x="51.51" y="95.66" width="7.36" height="7.36"/><rect class="cls-1" x="51.51" y="103.02" width="7.36" height="7.36"/><rect class="cls-1" x="51.51" y="110.38" width="7.36" height="7.36"/><rect class="cls-1" x="51.51" y="117.74" width="7.36" height="7.36"/><rect class="cls-1" x="51.51" y="125.1" width="7.36" height="7.36"/><rect class="cls-1" x="51.51" y="132.46" width="7.36" height="7.36"/><rect class="cls-1" x="51.51" y="139.82" width="7.36" height="7.36"/><rect class="cls-1" x="51.51" y="147.18" width="7.36" height="7.36"/><rect class="cls-1" x="58.87" y="7.36" width="7.36" height="7.36"/><rect class="cls-1" x="58.87" width="7.36" height="7.36"/><rect class="cls-1" x="58.87" y="125.1" width="7.36" height="7.36"/><rect class="cls-1" x="58.87" y="132.46" width="7.36" height="7.36"/><rect class="cls-1" x="58.87" y="139.82" width="7.36" height="7.36"/><rect class="cls-1" x="58.87" y="147.18" width="7.36" height="7.36"/><rect class="cls-1" x="51.51" y="154.53" width="7.36" height="7.36"/><rect class="cls-1" x="58.87" y="154.53" width="7.36" height="7.36"/><rect class="cls-1" x="110.38" y="80.95" width="7.36" height="7.36"/><rect class="cls-1" x="110.38" y="88.31" width="7.36" height="7.36"/><rect class="cls-1" x="110.38" y="95.66" width="7.36" height="7.36"/><rect class="cls-1" x="110.38" y="103.02" width="7.36" height="7.36"/><rect class="cls-1" x="110.38" y="110.38" width="7.36" height="7.36"/></svg>